<mxfile host="app.diagrams.net" modified="2024-05-03T10:28:06.540Z" agent="Mozilla/5.0 (Windows NT 10.0; Win64; x64) AppleWebKit/537.36 (KHTML, like Gecko) Chrome/124.0.0.0 Safari/537.36 Edg/124.0.0.0" etag="Xu9d1M9Qj37zbocIYDAz" version="24.2.7" type="device" pages="3">
  <diagram name="Context Diag" id="f0ViV_nZWKR4U0pCzxf7">
    <mxGraphModel dx="1042" dy="665" grid="1" gridSize="10" guides="1" tooltips="1" connect="1" arrows="1" fold="1" page="1" pageScale="1" pageWidth="850" pageHeight="1100" math="0" shadow="0">
      <root>
        <mxCell id="0" />
        <mxCell id="1" parent="0" />
        <mxCell id="h1llfL-H4g6eRjzff-yZ-2" style="edgeStyle=orthogonalEdgeStyle;rounded=0;orthogonalLoop=1;jettySize=auto;html=1;" parent="1" source="h1llfL-H4g6eRjzff-yZ-1" target="h1llfL-H4g6eRjzff-yZ-3" edge="1">
          <mxGeometry relative="1" as="geometry">
            <mxPoint x="390" y="460" as="targetPoint" />
            <Array as="points">
              <mxPoint x="340" y="380" />
              <mxPoint x="345" y="380" />
            </Array>
          </mxGeometry>
        </mxCell>
        <mxCell id="h1llfL-H4g6eRjzff-yZ-6" value="Customer check app, using web browser." style="edgeLabel;html=1;align=center;verticalAlign=middle;resizable=0;points=[];" parent="h1llfL-H4g6eRjzff-yZ-2" vertex="1" connectable="0">
          <mxGeometry x="-0.184" y="5" relative="1" as="geometry">
            <mxPoint as="offset" />
          </mxGeometry>
        </mxCell>
        <mxCell id="h1llfL-H4g6eRjzff-yZ-5" value="via rest API" style="edgeStyle=orthogonalEdgeStyle;rounded=0;orthogonalLoop=1;jettySize=auto;html=1;" parent="1" source="h1llfL-H4g6eRjzff-yZ-1" target="h1llfL-H4g6eRjzff-yZ-4" edge="1">
          <mxGeometry relative="1" as="geometry" />
        </mxCell>
        <mxCell id="h1llfL-H4g6eRjzff-yZ-1" value="To do app" style="rounded=0;whiteSpace=wrap;html=1;" parent="1" vertex="1">
          <mxGeometry x="200" y="240" width="320" height="90" as="geometry" />
        </mxCell>
        <mxCell id="h1llfL-H4g6eRjzff-yZ-3" value="Customer" style="shape=umlActor;verticalLabelPosition=bottom;verticalAlign=top;html=1;outlineConnect=0;" parent="1" vertex="1">
          <mxGeometry x="330" y="430" width="30" height="60" as="geometry" />
        </mxCell>
        <mxCell id="h1llfL-H4g6eRjzff-yZ-4" value="Trello&amp;nbsp;" style="rounded=0;whiteSpace=wrap;html=1;" parent="1" vertex="1">
          <mxGeometry x="660" y="240" width="180" height="90" as="geometry" />
        </mxCell>
      </root>
    </mxGraphModel>
  </diagram>
  <diagram id="zJQStXigXYDNkAOk4aMf" name="Container Diag">
    <mxGraphModel dx="1042" dy="665" grid="1" gridSize="10" guides="1" tooltips="1" connect="1" arrows="1" fold="1" page="1" pageScale="1" pageWidth="850" pageHeight="1100" math="0" shadow="0">
      <root>
        <mxCell id="0" />
        <mxCell id="1" parent="0" />
        <mxCell id="V5jExA2CgknmyPz9Tg6N-1" style="edgeStyle=orthogonalEdgeStyle;rounded=0;orthogonalLoop=1;jettySize=auto;html=1;exitX=1;exitY=0.5;exitDx=0;exitDy=0;entryX=1;entryY=0.592;entryDx=0;entryDy=0;entryPerimeter=0;" parent="1" source="MCAsUbHuG4TOWyqLgsrB-1" target="MCAsUbHuG4TOWyqLgsrB-1" edge="1">
          <mxGeometry relative="1" as="geometry" />
        </mxCell>
        <mxCell id="bEWMICctn3OScWlKMbQs-3" value="via rest API" style="edgeStyle=orthogonalEdgeStyle;rounded=0;orthogonalLoop=1;jettySize=auto;html=1;exitX=1;exitY=0.75;exitDx=0;exitDy=0;" parent="1" source="bEWMICctn3OScWlKMbQs-7" target="bEWMICctn3OScWlKMbQs-6" edge="1">
          <mxGeometry relative="1" as="geometry" />
        </mxCell>
        <mxCell id="bEWMICctn3OScWlKMbQs-4" value="To do app" style="rounded=0;whiteSpace=wrap;html=1;labelPosition=center;verticalLabelPosition=top;align=center;verticalAlign=bottom;fillColor=#d5e8d4;strokeColor=#82b366;" parent="1" vertex="1">
          <mxGeometry x="120" y="260" width="370" height="170" as="geometry" />
        </mxCell>
        <mxCell id="bEWMICctn3OScWlKMbQs-5" value="Customer" style="shape=umlActor;verticalLabelPosition=bottom;verticalAlign=top;html=1;outlineConnect=0;" parent="1" vertex="1">
          <mxGeometry x="210" y="540" width="30" height="60" as="geometry" />
        </mxCell>
        <mxCell id="bEWMICctn3OScWlKMbQs-6" value="Trello&amp;nbsp;" style="rounded=0;whiteSpace=wrap;html=1;" parent="1" vertex="1">
          <mxGeometry x="670" y="310" width="180" height="90" as="geometry" />
        </mxCell>
        <mxCell id="bEWMICctn3OScWlKMbQs-8" value="" style="edgeStyle=orthogonalEdgeStyle;rounded=0;orthogonalLoop=1;jettySize=auto;html=1;" parent="1" source="MCAsUbHuG4TOWyqLgsrB-1" target="bEWMICctn3OScWlKMbQs-7" edge="1">
          <mxGeometry relative="1" as="geometry" />
        </mxCell>
        <mxCell id="MCAsUbHuG4TOWyqLgsrB-1" value="Flask Webserver" style="rounded=1;whiteSpace=wrap;html=1;" parent="1" vertex="1">
          <mxGeometry x="144.25" y="360" width="161.5" height="47.5" as="geometry" />
        </mxCell>
        <mxCell id="bEWMICctn3OScWlKMbQs-7" value="Website Code" style="rounded=1;whiteSpace=wrap;html=1;" parent="1" vertex="1">
          <mxGeometry x="340" y="320" width="136" height="40" as="geometry" />
        </mxCell>
        <mxCell id="bEWMICctn3OScWlKMbQs-1" style="edgeStyle=orthogonalEdgeStyle;rounded=0;orthogonalLoop=1;jettySize=auto;html=1;exitX=0.5;exitY=1;exitDx=0;exitDy=0;" parent="1" source="MCAsUbHuG4TOWyqLgsrB-1" edge="1">
          <mxGeometry relative="1" as="geometry">
            <mxPoint x="230" y="530" as="targetPoint" />
            <Array as="points">
              <mxPoint x="230" y="408" />
            </Array>
            <mxPoint x="230" y="430" as="sourcePoint" />
          </mxGeometry>
        </mxCell>
        <mxCell id="bEWMICctn3OScWlKMbQs-2" value="Customer check app, using web browser." style="edgeLabel;html=1;align=center;verticalAlign=middle;resizable=0;points=[];" parent="bEWMICctn3OScWlKMbQs-1" vertex="1" connectable="0">
          <mxGeometry x="-0.184" y="5" relative="1" as="geometry">
            <mxPoint as="offset" />
          </mxGeometry>
        </mxCell>
      </root>
    </mxGraphModel>
  </diagram>
  <diagram id="aUplhsbxLvrGmjOlNt_G" name="Component Diagram">
    <mxGraphModel dx="1892" dy="665" grid="1" gridSize="10" guides="1" tooltips="1" connect="1" arrows="1" fold="1" page="1" pageScale="1" pageWidth="850" pageHeight="1100" math="0" shadow="0">
      <root>
        <mxCell id="0" />
        <mxCell id="1" parent="0" />
        <mxCell id="gYwKMeShiKQxgN1QV_8q-1" style="edgeStyle=orthogonalEdgeStyle;rounded=0;orthogonalLoop=1;jettySize=auto;html=1;exitX=1;exitY=0.5;exitDx=0;exitDy=0;entryX=1;entryY=0.592;entryDx=0;entryDy=0;entryPerimeter=0;" parent="1" source="gYwKMeShiKQxgN1QV_8q-7" target="gYwKMeShiKQxgN1QV_8q-7" edge="1">
          <mxGeometry relative="1" as="geometry" />
        </mxCell>
        <mxCell id="gYwKMeShiKQxgN1QV_8q-2" value="via rest API" style="edgeStyle=orthogonalEdgeStyle;rounded=0;orthogonalLoop=1;jettySize=auto;html=1;exitX=1;exitY=0.75;exitDx=0;exitDy=0;" parent="1" source="gYwKMeShiKQxgN1QV_8q-8" target="gYwKMeShiKQxgN1QV_8q-5" edge="1">
          <mxGeometry x="0.1579" relative="1" as="geometry">
            <Array as="points">
              <mxPoint x="650" y="450" />
            </Array>
            <mxPoint as="offset" />
          </mxGeometry>
        </mxCell>
        <mxCell id="gYwKMeShiKQxgN1QV_8q-5" value="Trello&amp;nbsp;" style="rounded=0;whiteSpace=wrap;html=1;" parent="1" vertex="1">
          <mxGeometry x="840" y="400" width="180" height="90" as="geometry" />
        </mxCell>
        <mxCell id="gYwKMeShiKQxgN1QV_8q-7" value="Flask Webserver" style="rounded=1;whiteSpace=wrap;html=1;" parent="1" vertex="1">
          <mxGeometry x="-10" y="341.25" width="161.5" height="47.5" as="geometry" />
        </mxCell>
        <mxCell id="gYwKMeShiKQxgN1QV_8q-8" value="Todo App Codebase" style="rounded=1;whiteSpace=wrap;html=1;labelPosition=center;verticalLabelPosition=top;align=center;verticalAlign=bottom;" parent="1" vertex="1">
          <mxGeometry x="230" y="180" width="460" height="370" as="geometry" />
        </mxCell>
        <mxCell id="gYwKMeShiKQxgN1QV_8q-11" value=".env file&lt;br&gt;Setting/Configuration file" style="rounded=1;whiteSpace=wrap;html=1;" parent="1" vertex="1">
          <mxGeometry x="280" y="220" width="120" height="60" as="geometry" />
        </mxCell>
        <mxCell id="jbPgg1P3X-m3UD-JYqgs-3" style="edgeStyle=orthogonalEdgeStyle;rounded=0;orthogonalLoop=1;jettySize=auto;html=1;entryX=0.5;entryY=1;entryDx=0;entryDy=0;" edge="1" parent="1" source="gYwKMeShiKQxgN1QV_8q-12" target="gYwKMeShiKQxgN1QV_8q-11">
          <mxGeometry relative="1" as="geometry" />
        </mxCell>
        <mxCell id="jbPgg1P3X-m3UD-JYqgs-4" style="edgeStyle=orthogonalEdgeStyle;rounded=0;orthogonalLoop=1;jettySize=auto;html=1;entryX=0;entryY=0.5;entryDx=0;entryDy=0;" edge="1" parent="1" source="gYwKMeShiKQxgN1QV_8q-12" target="yo7GmqlP-NKbCI3s_l_O-1">
          <mxGeometry relative="1" as="geometry" />
        </mxCell>
        <mxCell id="jbPgg1P3X-m3UD-JYqgs-7" style="edgeStyle=orthogonalEdgeStyle;rounded=0;orthogonalLoop=1;jettySize=auto;html=1;entryX=0;entryY=0.75;entryDx=0;entryDy=0;" edge="1" parent="1" source="gYwKMeShiKQxgN1QV_8q-12" target="yo7GmqlP-NKbCI3s_l_O-2">
          <mxGeometry relative="1" as="geometry">
            <Array as="points">
              <mxPoint x="435" y="390" />
              <mxPoint x="435" y="265" />
            </Array>
          </mxGeometry>
        </mxCell>
        <mxCell id="gYwKMeShiKQxgN1QV_8q-12" value="app.py file&lt;br&gt;Defines actions that can be performed on the website" style="rounded=1;whiteSpace=wrap;html=1;" parent="1" vertex="1">
          <mxGeometry x="280" y="388.75" width="120" height="60" as="geometry" />
        </mxCell>
        <mxCell id="jbPgg1P3X-m3UD-JYqgs-5" style="edgeStyle=orthogonalEdgeStyle;rounded=0;orthogonalLoop=1;jettySize=auto;html=1;entryX=0.999;entryY=0.725;entryDx=0;entryDy=0;entryPerimeter=0;" edge="1" parent="1" source="yo7GmqlP-NKbCI3s_l_O-1" target="gYwKMeShiKQxgN1QV_8q-8">
          <mxGeometry relative="1" as="geometry">
            <mxPoint x="660" y="450" as="targetPoint" />
            <Array as="points">
              <mxPoint x="620" y="419" />
              <mxPoint x="620" y="451" />
              <mxPoint x="690" y="451" />
            </Array>
          </mxGeometry>
        </mxCell>
        <mxCell id="yo7GmqlP-NKbCI3s_l_O-1" value="trello_items.py&lt;br&gt;manages the tasks in Trello&lt;div&gt;&lt;br/&gt;&lt;/div&gt;" style="rounded=1;whiteSpace=wrap;html=1;" vertex="1" parent="1">
          <mxGeometry x="460" y="383.75" width="120" height="70" as="geometry" />
        </mxCell>
        <mxCell id="yo7GmqlP-NKbCI3s_l_O-2" value="templates&lt;br&gt;html structure for content display" style="rounded=1;whiteSpace=wrap;html=1;" vertex="1" parent="1">
          <mxGeometry x="470" y="220" width="120" height="60" as="geometry" />
        </mxCell>
        <mxCell id="jbPgg1P3X-m3UD-JYqgs-2" style="edgeStyle=orthogonalEdgeStyle;rounded=0;orthogonalLoop=1;jettySize=auto;html=1;entryX=0.14;entryY=0.649;entryDx=0;entryDy=0;entryPerimeter=0;" edge="1" parent="1" source="gYwKMeShiKQxgN1QV_8q-7" target="gYwKMeShiKQxgN1QV_8q-8">
          <mxGeometry relative="1" as="geometry" />
        </mxCell>
      </root>
    </mxGraphModel>
  </diagram>
</mxfile>
